<svg width="68" height="68" viewBox="0 0 68 68" fill="none" xmlns="http://www.w3.org/2000/svg">
<rect x="7" y="7" width="54" height="54" rx="27" fill="#F36805"/>
<path d="M28.7139 43.9668H23.6641V32.8926H28.832C28.2194 34.882 27.9156 36.9536 27.9313 39.0351C27.8866 40.7132 28.1519 42.3851 28.7139 43.9668ZM44.2473 33.7933C44.0718 33.4752 43.8312 33.1977 43.5411 32.9789C43.2511 32.7601 42.9181 32.6049 42.5641 32.5235L38.4297 31.6671L39.227 27.6361C39.326 27.1979 39.3237 26.7429 39.2203 26.3058C39.1169 25.8686 38.9151 25.4608 38.6304 25.1134C38.3456 24.766 37.9854 24.4881 37.577 24.3009C37.1686 24.1138 36.723 24.0222 36.2739 24.0332H35.4766L31.2536 32.7154C30.4899 34.728 30.119 36.8682 30.1609 39.0203C30.0806 40.7148 30.3834 42.4056 31.0469 43.9668H38.9022C39.7291 43.9783 40.5398 43.737 41.2258 43.2753C41.9119 42.8135 42.4406 42.1532 42.7413 41.3828L44.4688 35.8605C44.5744 35.519 44.6093 35.1595 44.5712 34.8041C44.5331 34.4486 44.4229 34.1047 44.2473 33.7933Z" fill="white"/>
</svg>
